<mxfile host="app.diagrams.net" modified="2023-04-24T16:33:34.374Z" agent="Mozilla/5.0 (Windows NT 10.0; Win64; x64; rv:109.0) Gecko/20100101 Firefox/112.0" version="21.2.1" etag="2vQXqOeLELFtDBZ2La9E" type="github">
  <diagram name="Page-1" id="EHUr5D6uENfT5PBbsC9S">
    <mxGraphModel>
      <root>
        <mxCell id="0" />
        <mxCell id="1" parent="0" />
      </root>
    </mxGraphModel>
  </diagram>
</mxfile>
